<svg xmlns="http://www.w3.org/2000/svg" preserveAspectRatio="xMidYMid" width="37" height="51" viewBox="0 0 37 51"><defs><style>.cls-2 { fill: #b1bec6; }</style></defs><path d="M32.43 0H5.077C1.3 0 0 2.665 0 4.675V47.82c0 2.15 1.274 2.758 1.882 3.003.61.245 2.17.403 3.292-.705l13.194-14.612c.21-.234.965-.543 1.086-.543h8.215c3.51 0 3.553-2.86 3.92-4.334.306-1.237 3.82-18.784 5.064-24.32C37.68 1.746 36.45 0 32.43 0zm-1.613 7.185l-1.237 5.922c-.14.647-.723 1.293-1.476 1.36h-10.68c-1.195-.067-2.137.83-2.137 2.024v1.307c0 1.197.942 2.432 2.138 2.432h9.047c.843 0 1.56.542 1.376 1.445-.185.904-1.128 5.538-1.232 6.032-.1.497-.554 1.498-1.406 1.498h-7.107c-1.34 0-2.67-.017-3.568 1.1-.9 1.12-8.903 10.38-8.903 10.38V6.675c0-.86.612-1.462 1.403-1.452H29.18c.807-.01 1.796.804 1.637 1.96z" id="path-1" class="cls-2" fill-rule="evenodd"/></svg>