<svg xmlns="http://www.w3.org/2000/svg" preserveAspectRatio="xMidYMid" width="30" height="42" viewBox="0 0 30 42"><defs><style>.cls-2 { fill: #b1bec6; }</style></defs><path d="M27.2 21.942h.01l-.257.405c-.104.166-.203.334-.314.495L14.5 42 2.496 22.773c-.042-.062-.078-.128-.12-.19l-.4-.642h.01c-1.264-2.16-2-4.662-2-7.35C-.014 6.537 6.526 0 14.593 0S29.2 6.534 29.2 14.59c0 2.685-.737 5.19-2.002 7.35zM14.593 7.582c-3.877 0-7.02 3.14-7.02 7.01 0 3.874 3.143 7.013 7.02 7.013s7.02-3.14 7.02-7.012c0-3.872-3.143-7.01-7.02-7.01z" id="path-1" class="cls-2" fill-rule="evenodd"/></svg>