<svg xmlns="http://www.w3.org/2000/svg" preserveAspectRatio="xMidYMid" width="20" height="16" viewBox="0 0 20 16"><defs><style>.cls-2 { fill: #90a4ae; }</style></defs><path d="M19.6 1.894c-.72.322-1.495.54-2.31.636.832-.5 1.47-1.29 1.77-2.235-.778.463-1.638.8-2.555.98C15.772.492 14.725 0 13.57 0c-2.22 0-4.022 1.81-4.022 4.04 0 .316.035.624.104.92C6.31 4.79 3.345 3.183 1.362.74c-.346.596-.545 1.29-.545 2.03 0 1.402.71 2.64 1.79 3.363-.66-.022-1.28-.204-1.822-.505v.05c0 1.957 1.386 3.59 3.226 3.962-.334.09-.69.14-1.06.14-.255 0-.51-.024-.753-.072.512 1.605 1.998 2.773 3.757 2.805-1.375 1.084-3.11 1.73-4.994 1.73-.325 0-.645-.02-.96-.057C1.777 15.333 3.89 16 6.162 16c7.397 0 11.443-6.153 11.443-11.49 0-.175-.004-.35-.012-.523.786-.57 1.468-1.28 2.007-2.09z" id="path-1" class="cls-2" fill-rule="evenodd"/></svg>