<svg xmlns="http://www.w3.org/2000/svg" preserveAspectRatio="xMidYMid" width="19" height="19" viewBox="0 0 19 19"><defs><style>.cls-2 { fill: #90a4ae; }</style></defs><path d="M17.213 9.373l-2.94 2.947s-3.893 3.903-7.713.127c-.33-.33-.59-.7-.82-1.078l2.103-2.11c.11.45.33.87.677 1.22 1.897 1.9 3.857-.067 3.857-.067l2.94-2.948s1.96-1.965.063-3.866c-1.897-1.9-3.857.063-3.857.063s-.95-.95-2.876-.92l.98-.98s3.92-3.93 7.713-.128-.127 7.73-.127 7.73zm-3.952-1.74l-2.1 2.107c-.11-.448-.33-.874-.673-1.222-1.896-1.9-3.856.063-3.856.063l-2.94 2.95s-1.96 1.97-.064 3.87c1.898 1.9 3.858-.064 3.858-.064s.9 1.024 2.903.893l-1.005 1.01s-3.92 3.926-7.713.124c-3.795-3.803.125-7.732.125-7.732l2.94-2.946s3.92-3.93 7.713-.126c.33.33.59.7.82 1.08z" id="path-1" class="cls-2" fill-rule="evenodd"/></svg>