<svg xmlns="http://www.w3.org/2000/svg" preserveAspectRatio="xMidYMid" width="32" height="28" viewBox="0 0 32 28"><defs><style>.cls-2 { fill: #b0bec5; }</style></defs><path d="M0 7.62l1.3 1.708s2.68-2.12 3.572-1.06c.894 1.06 4.302 13.85 5.44 16.21.994 2.07 3.735 4.806 6.74 2.85C20.055 25.374 30.042 16.82 31.83 6.72c1.786-10.098-12.02-7.984-13.48.815 3.654-2.202 5.605.895 3.735 4.4-1.867 3.5-3.572 5.784-4.465 5.784-.89 0-1.578-2.344-2.6-6.44C13.965 7.047 13.97-.58 9.58.285 5.44 1.1 0 7.62 0 7.62z" id="path-1" class="cls-2" fill-rule="evenodd"/></svg>