<svg xmlns="http://www.w3.org/2000/svg" preserveAspectRatio="xMidYMid" width="26" height="27" viewBox="0 0 26 27"><defs><style>.cls-2 { fill: #b0bec5; }</style></defs><path d="M5.794 0h.383c.31.063.624.105.925.193.426.125.747.395.89.813.677 2 1.358 4 2.014 6.01 1.317 4.03 2.618 8.066 3.926 12.1.03.093.07.183.105.277l.118-.03c2.312-.732 4.623-1.466 6.937-2.192.786-.24 1.568-.52 2.373-.683.786-.16 1.322.013 1.632.798.2.507.41 1.01.573 1.528.14.45.222.915.33 1.374v1.356c-.123.13-.227.29-.373.386-.235.156-.487.3-.75.404-.918.37-1.83.76-2.77 1.07-1.916.636-3.846 1.23-5.773 1.836-1.527.48-3.053.96-4.587 1.41-.536.16-1.095.24-1.644.36h-1.34c-.19-.16-.403-.298-.565-.48-.53-.594-.772-1.334-1.01-2.065-.365-1.113-.668-2.246-1.043-3.356-1.127-3.346-2.275-6.68-3.418-10.016C1.82 8.434.91 5.782 0 3.13v-.327c.198-.456.485-.86.948-1.064C2.135 1.21 3.332.71 4.542.24c.39-.15.833-.167 1.252-.244z" id="path-1" class="cls-2" fill-rule="evenodd"/></svg>