<svg xmlns="http://www.w3.org/2000/svg" preserveAspectRatio="xMidYMid" width="32" height="27" viewBox="0 0 32 27"><defs><style>.cls-2 { fill: #b0bec5; }</style></defs><path d="M31.992 3.196c-1.176.543-2.442.91-3.77 1.072 1.356-.842 2.396-2.178 2.886-3.77-1.268.78-2.672 1.348-4.167 1.654C25.746.828 24.04 0 22.15 0c-3.623 0-6.56 3.05-6.56 6.817 0 .533.057 1.053.17 1.552-5.455-.286-10.29-3-13.527-7.124-.565 1.007-.89 2.178-.89 3.428 0 2.365 1.16 4.45 2.92 5.673-1.075-.035-2.087-.342-2.972-.853v.086c0 3.303 2.264 6.058 5.266 6.685-.55.155-1.13.24-1.73.24-.423 0-.834-.043-1.234-.124.836 2.71 3.26 4.68 6.13 4.736-2.245 1.83-5.074 2.918-8.15 2.918-.528 0-1.05-.032-1.565-.095C2.91 25.872 6.36 27 10.065 27c12.07 0 18.67-10.386 18.67-19.394 0-.296-.005-.59-.017-.883 1.282-.96 2.394-2.16 3.274-3.527z" id="path-1" class="cls-2" fill-rule="evenodd"/></svg>