<svg xmlns="http://www.w3.org/2000/svg" preserveAspectRatio="xMidYMid" width="19" height="18" viewBox="0 0 19 18"><defs><style>.cls-2 { fill: #b0bec5; }</style></defs><path d="M9.268.006C4.15.006 0 4.136 0 9.232c0 4.076 2.655 7.534 6.338 8.753.463.085.633-.2.633-.443 0-.22 0-.948-.01-1.718-2.58.558-3.12-1.087-3.12-1.087-.42-1.066-1.03-1.35-1.03-1.35-.84-.573.07-.56.07-.56.93.063 1.42.95 1.42.95.83 1.41 2.17 1.002 2.7.766.086-.595.326-1.003.59-1.232-2.06-.23-4.22-1.02-4.22-4.56 0-1 .36-1.83.95-2.47-.092-.23-.412-1.17.094-2.44 0 0 .777-.25 2.55.95.737-.205 1.53-.31 2.318-.31s1.58.106 2.32.31c1.77-1.194 2.55-.945 2.55-.945.506 1.27.187 2.208.092 2.44.593.647.95 1.47.95 2.477 0 3.546-2.17 4.326-4.23 4.555.333.287.63.848.63 1.707 0 1.237-.015 2.23-.015 2.535 0 .242.17.53.637.44 3.68-1.224 6.336-4.68 6.336-8.755-.01-5.1-4.16-9.23-9.28-9.23z" id="path-1" class="cls-2" fill-rule="evenodd"/></svg>