<svg xmlns="http://www.w3.org/2000/svg" preserveAspectRatio="xMidYMid" width="20" height="16" viewBox="0 0 20 16"><defs><style>.cls-2 { fill: #b0bec5; }</style></defs><path d="M19.574 1.895c-.72.32-1.494.538-2.307.635.83-.5 1.466-1.29 1.766-2.235-.776.463-1.635.8-2.55.98C15.75.492 14.705 0 13.55 0c-2.217 0-4.015 1.81-4.015 4.04 0 .317.035.624.104.92C6.3 4.79 3.34 3.184 1.36.74c-.346.596-.544 1.29-.544 2.03 0 1.402.71 2.64 1.787 3.363-.658-.022-1.278-.203-1.82-.505v.05c0 1.958 1.385 3.59 3.222 3.962-.337.09-.69.14-1.058.14-.26 0-.51-.024-.756-.072.515 1.605 1.998 2.773 3.755 2.805-1.375 1.084-3.106 1.73-4.988 1.73-.324 0-.644-.02-.958-.057C1.774 15.333 3.887 16 6.153 16 13.542 16 17.58 9.847 17.58 4.51c0-.175-.002-.35-.01-.523.785-.57 1.466-1.28 2.004-2.09z" id="path-1" class="cls-2" fill-rule="evenodd"/></svg>