<svg xmlns="http://www.w3.org/2000/svg" preserveAspectRatio="xMidYMid" width="17" height="17" viewBox="0 0 17 17"><defs><style>.cls-2 { fill: #b0bec5; }</style></defs><path d="M8.492 0C3.802 0 .002 3.782.002 8.45c0 4.666 3.8 8.45 8.49 8.45.574 0 1.134-.057 1.676-.165-.218-.104-.242-.884-.026-1.33.24-.494.995-1.75.25-2.17-.748-.42-.54-.61-.996-1.097-.456-.487-.27-.56-.3-.685-.098-.43.44-1.073.465-1.14.03-.065.03-.312.02-.387-.01-.074-.34-.272-.42-.28-.08-.008-.12.132-.24.14-.11.01-.62-.304-.73-.388-.11-.082-.15-.28-.3-.43-.15-.147-.162-.032-.4-.123-.23-.09-.973-.363-1.55-.593-.57-.232-.62-.555-.63-.785-.01-.23-.343-.56-.503-.8-.16-.24-.19-.57-.247-.495-.06.074.3.94.24.965-.058.025-.183-.24-.35-.454-.164-.215.176-.1-.355-1.14-.53-1.038.168-1.568.2-2.11.034-.544.45.196.233-.15-.215-.347.018-1.072-.15-1.337-.164-.263-1.11.298-1.11.298.026-.257.83-.694 1.41-1.098.58-.405.935-.092 1.4.057.468.15.5.1.34-.05-.156-.148.068-.222.43-.164.366.05.466.49 1.02.45.557-.04.06.1.13.25.078.14-.08.12-.45.37-.36.24.01.24.66.71s.447-.32.38-.66c-.065-.35.474-.08.474-.08.4.263.326.014.616.105.29.09 1.076.754 1.076.754-.986.54-.364.596-.2.72.168.123-.34.363-.34.363-.205-.207-.24.01-.37.082-.133.073-.008.263-.008.263-.69.11-.534.823-.526 1 .01.17-.44.433-.553.68-.115.247.3.784.084.817-.216.033-.432-.81-1.592-.495-.35.092-1.125.493-.71 1.31.41.815 1.1-.233 1.333-.118.23.115-.067.635-.017.643.05.007.655.022.688.725.036.7.92.64 1.11.66.195.015.83-.52.925-.546.09-.03.456-.33 1.252.12.792.452 1.2.39 1.472.576.273.19.082.57.34.694.257.124 1.285-.04 1.542.38.257.42-1.062 2.533-1.476 2.765-.416.23-.606.76-1.02 1.095-.416.34-.996.758-1.54 1.08-.488.29-.575.803-.79.965 3.8-.84 6.64-4.213 6.64-8.25 0-4.664-3.8-8.45-8.49-8.45zm1.99 7.93c-.116.032-.357.247-.945-.1-.59-.346-.995-.28-1.045-.338 0 0-.05-.14.207-.165.52-.05 1.19.487 1.34.495.15.01.22-.15.49-.064s.06.14-.05.172zM7.704.84c-.057-.042.048-.09.11-.173.038-.048.01-.128.056-.173.125-.124.738-.297.618.042-.12.337-.692.37-.784.305zm1.484 1.073c-.207-.008-.695-.06-.605-.148.35-.346-.132-.445-.43-.47-.3-.025-.424-.19-.274-.207.14-.016.74.01.84.09.1.083.64.298.67.454.03.158 0 .29-.21.28zm1.8-.057c-.166.13-1-.474-1.16-.61C9.13.65 8.758.848 8.61.75c-.145-.1-.093-.23.13-.43.225-.197.855.067 1.22.11.364.04.787.32.796.653.008.333.398.64.232.773z" id="path-1" class="cls-2" fill-rule="evenodd"/></svg>